:SAMPLES-PER-SECOND 30
:FULLY-SPECIFIED
:DEGREES
615
root  1.26561 28.5272 -67.0894 -165.134 -4.69844 95.479
Spine  -3.43695 2.59409 0.909846
Spine1  -1.18111 21.6904 12.1982
Neck  3.97569e-016 0 -2.38542e-015
Head  -37.1918 -0.0910634 19.7644
R_Clavicle  0.469837 -11.4792 2.63369
R_UpperArm  29.8822 -9.28515 51.6434
R_Forearm  16.5601 -14.802 12.7328
R_Hand  0.171896 5.37377 -7.49062
L_Clavicle  -0.429824 14.8679 1.03205
L_UpperArm  -34.735 -2.31079 20.566
L_Forearm  -4.8515 10.6109 12.4821
L_Hand  -0.203162 2.39683 -2.8062
L_Thigh  -20.4786 -2.82318 5.75771
L_Calf  -16.0616 4.63265 -36.5935
L_Foot  5.18993 13.877 5.55983
L_Toe0  1.10928 -0.0161391 -6.48667
R_Thigh  11.8723 11.9605 13.5036
R_Calf  -0.175259 2.61397 8.83789
R_Foot  -4.73051 -15.1174 1.5655
R_Toe0  -1.79805 -0.265271 -17.3238
616
root  1.81949 28.7358 -67.7673 -169.693 -4.83945 96.6114
Spine  -4.0136 1.17227 0.32092
Spine1  -1.00715 22.167 13.9649
Neck  3.97569e-016 0 -2.38542e-015
Head  -36.2132 -1.95581 19.6234
R_Clavicle  0.49285 -12.6434 2.95585
R_UpperArm  29.9295 -12.5316 45.731
R_Forearm  8.83864 -21.3821 18.3482
R_Hand  0.351043 7.01304 -7.61181
L_Clavicle  -0.45377 16.0615 0.645448
L_UpperArm  -28.6899 -3.84101 14.1748
L_Forearm  -2.78022 8.48936 9.91201
L_Hand  -0.22221 2.35131 -3.08526
L_Thigh  -16.9385 -2.82928 7.26474
L_Calf  -13.3881 4.35399 -34.0959
L_Foot  4.50232 10.7969 6.19387
L_Toe0  0.548132 0.0251173 -6.16065
R_Thigh  8.63481 12.9401 10.9392
R_Calf  -1.69082 2.46414 8.31965
R_Foot  -4.80195 -14.4349 2.66137
R_Toe0  -1.79904 -0.264478 -17.3238
617
root  2.29708 29.2025 -68.3682 -174.461 -4.91285 97.5257
Spine  -4.96452 -0.961485 -0.0407784
Spine1  -1.58039 22.9402 13.6627
Neck  3.97569e-016 0 -2.38542e-015
Head  -34.6163 -3.83484 20.8439
R_Clavicle  0.478321 -13.8227 2.87826
R_UpperArm  36.4305 -15.2929 41.5431
R_Forearm  0.112406 -29.8245 23.0711
R_Hand  0.54303 8.07779 -7.11445
L_Clavicle  -0.445432 15.7295 0.304253
L_UpperArm  -22.2539 -4.27148 6.72876
L_Forearm  -0.7209 9.32481 10.9189
L_Hand  -0.198976 2.72137 -2.6166
L_Thigh  -12.5052 -3.0741 6.37618
L_Calf  -12.0407 3.60087 -27.6887
L_Foot  4.17442 9.90633 5.98129
L_Toe0  -1.04534 0.0631437 -5.35748
R_Thigh  6.71877 12.907 7.66811
R_Calf  -3.62098 2.96086 9.84644
R_Foot  -4.97352 -14.668 3.04974
R_Toe0  -1.80002 -0.263693 -17.3238
618
root  2.6264 29.7673 -68.9454 178.568 -4.63333 97.8009
Spine  -5.49376 -2.7193 -0.161209
Spine1  -2.38207 22.5569 11.4681
Neck  3.97569e-016 0 -2.38542e-015
Head  -32.4465 -5.01124 21.8789
R_Clavicle  0.441265 -15.2514 2.44309
R_UpperArm  45.4213 -17.1198 40.3707
R_Forearm  -5.79459 -36.9598 27.1496
R_Hand  0.496764 7.99998 -7.37955
L_Clavicle  -0.418828 14.8443 0.0161231
L_UpperArm  -15.9887 -4.97343 -0.0360862
L_Forearm  0.910976 11.4589 13.5287
L_Hand  -0.185302 2.73648 -2.42233
L_Thigh  -8.4093 -2.68687 3.52849
L_Calf  -10.7854 2.49655 -18.9255
L_Foot  4.98407 12.2731 6.35547
L_Toe0  -7.72423 0.931711 -0.686093
R_Thigh  5.05167 12.8278 4.7376
R_Calf  -10.5737 3.88576 12.6482
R_Foot  -5.59253 -17.6006 2.05669
R_Toe0  -1.80098 -0.262922 -17.3238
619
root  2.92026 30.2785 -69.5413 169.73 -4.7345 97.6314
Spine  -5.98987 -4.621 -0.305806
Spine1  -3.33716 21.3995 8.61721
Neck  3.97569e-016 0 -2.38542e-015
Head  -28.8288 -6.15036 21.6562
R_Clavicle  0.425076 -16.5702 2.19639
R_UpperArm  45.9597 -17.6213 41.2959
R_Forearm  -3.02661 -39.9413 30.7172
R_Hand  0.326932 6.3121 -7.15737
L_Clavicle  -0.397111 14.1567 -0.0964999
L_UpperArm  -10.3677 -7.15589 -4.38206
L_Forearm  1.21735 12.7902 15.1905
L_Hand  -0.212379 2.46226 -2.89871
L_Thigh  -3.23868 -2.57821 -0.957802
L_Calf  -6.74013 1.22137 -9.21854
L_Foot  4.88017 12.3681 5.98331
L_Toe0  -11.9651 2.66256 6.66607
R_Thigh  3.1658 11.9856 3.53327
R_Calf  -22.0519 4.45904 14.3105
R_Foot  -5.08067 -18.1025 -0.54744
R_Toe0  -1.8019 -0.262174 -17.3238
620
root  3.33131 30.4448 -70.1195 160.326 -5.32942 98.0694
Spine  -6.99896 -6.75929 -0.330939
Spine1  -4.75341 19.7921 5.75396
Neck  3.97569e-016 0 -2.38542e-015
Head  -23.2179 -7.51363 20.583
R_Clavicle  0.427691 -17.124 2.25947
R_UpperArm  45.3855 -17.977 43.1606
R_Forearm  -0.328504 -40.6007 31.1128
R_Hand  0.293731 4.37385 -5.11566
L_Clavicle  -0.365149 13.0076 -0.0283935
L_UpperArm  -6.22199 -10.6141 -5.62639
L_Forearm  -0.459681 12.6531 15.0169
L_Hand  -0.253947 2.23145 -3.60301
L_Thigh  4.09 -3.58957 -7.55242
L_Calf  -1.31248 0.0849877 -0.686541
L_Foot  3.90813 5.38252 10.2547
L_Toe0  -5.68462 1.34 8.03296
R_Thigh  2.5978 9.07217 5.62816
R_Calf  -30.4518 3.19303 10.3181
R_Foot  -0.966051 -4.23237 -1.07518
R_Toe0  -1.80278 -0.261456 -17.3239
621
root  3.84991 30.1426 -70.6211 150.499 -5.20026 99.4382
Spine  -8.06486 -8.02273 0.0209244
Spine1  -6.27786 17.5129 3.0632
Neck  3.97569e-016 0 -2.38542e-015
Head  -16.2251 -7.99769 18.9307
R_Clavicle  0.426663 -16.7598 2.22972
R_UpperArm  43.9752 -18.9714 45.733
R_Forearm  2.62503 -38.5105 28.2472
R_Hand  0.36499 3.44576 -2.90372
L_Clavicle  -0.319344 11.2453 0.102927
L_UpperArm  -3.96805 -15.063 -4.15571
L_Forearm  -3.38862 11.7202 13.8497
L_Hand  -0.3077 2.33888 -4.32681
L_Thigh  9.32846 -5.0968 -15.8061
L_Calf  0.759029 -0.99971 7.27448
L_Foot  4.15118 0.467869 18.4442
L_Toe0  -0.114994 -0.0730027 4.64784
R_Thigh  3.18865 6.09439 7.12372
R_Calf  -25.043 1.77302 5.82063
R_Foot  0.779444 4.08708 4.3162
R_Toe0  -1.8036 -0.260776 -17.3239
